<?xml version="1.0" encoding="UTF-8"?>
<svg xmlns="http://www.w3.org/2000/svg" xmlns:xlink="http://www.w3.org/1999/xlink" width="18px" height="18px" viewBox="0 0 18 18" version="1.1">
<g id="surface1">
<path style=" stroke:none;fill-rule:nonzero;fill:rgb(100%,100%,100%);fill-opacity:1;" d="M 8.378906 1.441406 C 8.195312 1.460938 7.921875 1.507812 7.730469 1.550781 C 7.664062 1.5625 7.539062 1.59375 7.449219 1.609375 C 7.363281 1.628906 7.257812 1.652344 7.214844 1.664062 C 7.171875 1.675781 7.089844 1.691406 7.035156 1.699219 C 6.976562 1.710938 6.800781 1.746094 6.640625 1.78125 C 6.480469 1.8125 6.265625 1.859375 6.160156 1.878906 C 5.753906 1.960938 5.164062 2.082031 5.101562 2.101562 C 5.0625 2.109375 4.957031 2.132812 4.871094 2.148438 C 4.78125 2.167969 4.65625 2.195312 4.589844 2.210938 C 4.523438 2.222656 4.398438 2.25 4.308594 2.269531 C 4.222656 2.289062 4.09375 2.3125 4.019531 2.328125 C 3.949219 2.347656 3.867188 2.363281 3.839844 2.367188 C 3.8125 2.371094 3.703125 2.394531 3.601562 2.417969 C 3.496094 2.441406 3.300781 2.484375 3.171875 2.511719 C 3.039062 2.539062 2.777344 2.59375 2.589844 2.628906 C 2.402344 2.671875 2.140625 2.722656 2.011719 2.75 C 1.347656 2.882812 1.214844 2.925781 1.132812 3.019531 C 1.101562 3.050781 1.097656 3.070312 1.113281 3.117188 C 1.144531 3.214844 1.328125 3.28125 2.050781 3.457031 C 2.414062 3.546875 2.765625 3.636719 2.828125 3.652344 C 2.988281 3.695312 3.121094 3.730469 3.277344 3.769531 C 3.34375 3.785156 3.457031 3.8125 3.527344 3.832031 C 3.59375 3.847656 3.695312 3.875 3.75 3.890625 C 3.804688 3.90625 4.203125 4.003906 4.628906 4.109375 C 5.058594 4.214844 5.441406 4.308594 5.480469 4.316406 C 5.5625 4.339844 5.757812 4.390625 5.914062 4.429688 C 5.976562 4.445312 6.089844 4.472656 6.160156 4.492188 C 6.402344 4.554688 6.488281 4.578125 6.609375 4.609375 C 6.808594 4.65625 6.972656 4.699219 7.097656 4.730469 C 7.523438 4.84375 8.84375 5.164062 8.90625 5.175781 C 8.949219 5.179688 9.035156 5.171875 9.097656 5.152344 C 9.160156 5.132812 9.652344 5.011719 10.191406 4.878906 C 10.730469 4.746094 11.214844 4.625 11.269531 4.609375 C 11.324219 4.59375 11.425781 4.566406 11.496094 4.550781 C 11.5625 4.535156 11.675781 4.507812 11.746094 4.488281 C 11.8125 4.472656 11.914062 4.445312 11.96875 4.429688 C 12.027344 4.414062 12.566406 4.28125 13.171875 4.128906 C 13.777344 3.980469 14.316406 3.847656 14.371094 3.828125 C 14.425781 3.8125 14.527344 3.789062 14.597656 3.773438 C 14.664062 3.753906 14.777344 3.726562 14.847656 3.707031 C 14.914062 3.691406 14.996094 3.671875 15.03125 3.65625 C 15.0625 3.648438 15.132812 3.632812 15.183594 3.621094 C 15.320312 3.59375 16.484375 3.304688 16.550781 3.28125 C 16.585938 3.269531 16.625 3.261719 16.640625 3.261719 C 16.699219 3.261719 16.917969 3.140625 16.949219 3.09375 C 16.980469 3.042969 16.980469 3.035156 16.953125 2.988281 C 16.890625 2.894531 16.753906 2.851562 16.109375 2.726562 C 15.710938 2.648438 14.941406 2.496094 14.691406 2.449219 C 14.175781 2.347656 13.960938 2.300781 13.835938 2.269531 C 13.773438 2.253906 13.699219 2.238281 13.667969 2.238281 C 13.640625 2.238281 13.570312 2.226562 13.515625 2.210938 C 13.417969 2.1875 13.332031 2.167969 12.925781 2.089844 C 12.847656 2.074219 12.714844 2.046875 12.632812 2.03125 C 12.554688 2.015625 12.324219 1.96875 12.121094 1.929688 C 11.914062 1.890625 11.714844 1.851562 11.671875 1.839844 C 11.625 1.828125 11.515625 1.808594 11.421875 1.789062 C 11.324219 1.773438 11.183594 1.746094 11.101562 1.726562 C 11.019531 1.710938 10.882812 1.683594 10.800781 1.664062 C 10.71875 1.648438 10.589844 1.625 10.511719 1.609375 C 9.980469 1.5 9.847656 1.476562 9.691406 1.457031 C 9.480469 1.429688 8.574219 1.421875 8.378906 1.441406 Z M 8.378906 1.441406 "/>
<path style=" stroke:none;fill-rule:nonzero;fill:rgb(100%,100%,100%);fill-opacity:1;" d="M 0.578125 3.789062 C 0.3125 3.847656 0.132812 4.007812 0.0390625 4.261719 C 0 4.367188 0 4.445312 0 9.085938 C 0 14.203125 -0.0078125 13.890625 0.109375 14.121094 C 0.269531 14.441406 0.527344 14.695312 0.8125 14.816406 C 0.910156 14.855469 1.367188 14.984375 1.554688 15.023438 C 1.605469 15.03125 1.648438 15.042969 1.660156 15.050781 C 1.671875 15.054688 1.714844 15.066406 1.765625 15.078125 C 1.8125 15.089844 1.921875 15.117188 2.011719 15.140625 C 2.097656 15.164062 2.203125 15.191406 2.238281 15.199219 C 2.355469 15.226562 3.765625 15.578125 3.828125 15.601562 C 3.863281 15.609375 3.945312 15.632812 4.015625 15.648438 C 4.277344 15.714844 4.394531 15.742188 4.488281 15.769531 C 4.546875 15.785156 4.644531 15.8125 4.714844 15.828125 C 4.863281 15.867188 5.050781 15.914062 5.191406 15.953125 C 5.308594 15.984375 6.3125 16.234375 6.710938 16.332031 C 6.863281 16.371094 7.035156 16.410156 7.089844 16.429688 C 7.144531 16.445312 7.246094 16.472656 7.320312 16.488281 C 7.390625 16.507812 7.496094 16.535156 7.550781 16.550781 C 7.742188 16.605469 7.839844 16.621094 7.953125 16.621094 C 8.238281 16.617188 8.472656 16.484375 8.613281 16.246094 C 8.722656 16.054688 8.71875 16.320312 8.71875 10.816406 C 8.71875 6.011719 8.71875 5.742188 8.683594 5.714844 C 8.664062 5.699219 8.617188 5.679688 8.578125 5.671875 C 8.484375 5.648438 7.554688 5.425781 7.429688 5.390625 C 7.375 5.375 7.273438 5.347656 7.199219 5.328125 C 7.128906 5.3125 7.023438 5.285156 6.96875 5.269531 C 6.910156 5.253906 6.851562 5.238281 6.828125 5.238281 C 6.8125 5.238281 6.753906 5.226562 6.703125 5.210938 C 6.585938 5.175781 6.464844 5.144531 5.960938 5.023438 C 5.734375 4.964844 5.34375 4.871094 5.089844 4.808594 C 4.839844 4.75 4.578125 4.6875 4.519531 4.671875 C 4.347656 4.628906 4.160156 4.578125 4.035156 4.546875 C 3.972656 4.53125 3.863281 4.507812 3.796875 4.488281 C 3.726562 4.472656 3.617188 4.445312 3.550781 4.429688 C 3.484375 4.410156 3.386719 4.386719 3.328125 4.371094 C 3.277344 4.355469 3.171875 4.328125 3.101562 4.3125 C 3.027344 4.296875 2.816406 4.246094 2.628906 4.199219 C 2.445312 4.152344 2.105469 4.070312 1.878906 4.019531 C 1.652344 3.964844 1.421875 3.90625 1.359375 3.890625 C 1.300781 3.875 1.195312 3.851562 1.128906 3.832031 C 0.828125 3.757812 0.757812 3.75 0.578125 3.789062 Z M 1.261719 5.691406 C 1.332031 5.710938 1.425781 5.730469 1.46875 5.738281 C 1.515625 5.75 1.605469 5.773438 1.671875 5.789062 C 1.734375 5.808594 1.832031 5.828125 1.882812 5.839844 C 1.9375 5.851562 1.996094 5.867188 2.019531 5.878906 C 2.039062 5.890625 2.078125 5.898438 2.101562 5.898438 C 2.125 5.898438 2.1875 5.914062 2.238281 5.929688 C 2.289062 5.945312 2.351562 5.964844 2.378906 5.96875 C 2.40625 5.972656 2.453125 6 2.484375 6.023438 L 2.539062 6.070312 L 2.558594 6.578125 C 2.574219 6.859375 2.589844 7.308594 2.601562 7.578125 C 2.621094 8.253906 2.65625 9.09375 2.679688 9.445312 C 2.691406 9.609375 2.699219 9.847656 2.703125 9.976562 C 2.703125 10.234375 2.71875 10.363281 2.753906 10.375 C 2.773438 10.378906 2.816406 10.28125 2.859375 10.128906 C 2.882812 10.050781 2.921875 9.945312 2.953125 9.863281 C 2.96875 9.828125 2.980469 9.777344 2.980469 9.75 C 2.980469 9.722656 2.992188 9.679688 3.007812 9.644531 C 3.023438 9.617188 3.0625 9.503906 3.097656 9.398438 C 3.128906 9.296875 3.191406 9.09375 3.234375 8.949219 C 3.28125 8.804688 3.34375 8.609375 3.371094 8.511719 C 3.398438 8.410156 3.4375 8.300781 3.453125 8.265625 C 3.46875 8.230469 3.480469 8.191406 3.480469 8.179688 C 3.480469 8.164062 3.515625 8.046875 3.558594 7.917969 C 3.605469 7.789062 3.640625 7.664062 3.640625 7.644531 C 3.640625 7.625 3.652344 7.589844 3.671875 7.566406 C 3.6875 7.546875 3.699219 7.507812 3.699219 7.476562 C 3.699219 7.449219 3.710938 7.417969 3.722656 7.40625 C 3.734375 7.394531 3.75 7.355469 3.761719 7.316406 C 3.769531 7.28125 3.785156 7.222656 3.796875 7.191406 C 3.808594 7.15625 3.832031 7.074219 3.851562 7.011719 C 3.871094 6.945312 3.890625 6.875 3.898438 6.859375 C 3.90625 6.84375 3.933594 6.761719 3.960938 6.679688 C 4.015625 6.496094 4.046875 6.429688 4.089844 6.414062 C 4.105469 6.40625 4.191406 6.421875 4.273438 6.445312 C 4.359375 6.464844 4.480469 6.496094 4.539062 6.511719 C 4.601562 6.523438 4.707031 6.550781 4.78125 6.570312 C 4.851562 6.589844 4.953125 6.613281 5.003906 6.621094 C 5.050781 6.628906 5.128906 6.652344 5.171875 6.675781 C 5.246094 6.710938 5.246094 6.710938 5.28125 6.890625 C 5.300781 6.988281 5.316406 7.144531 5.316406 7.234375 C 5.320312 7.324219 5.335938 7.46875 5.351562 7.554688 C 5.367188 7.640625 5.378906 7.757812 5.378906 7.816406 C 5.378906 7.910156 5.402344 8.136719 5.460938 8.621094 C 5.46875 8.71875 5.480469 8.84375 5.480469 8.902344 C 5.480469 8.960938 5.492188 9.085938 5.511719 9.179688 C 5.527344 9.273438 5.539062 9.398438 5.539062 9.457031 C 5.539062 9.519531 5.550781 9.671875 5.566406 9.796875 C 5.585938 9.925781 5.609375 10.164062 5.621094 10.328125 C 5.652344 10.769531 5.6875 11.046875 5.710938 11.054688 C 5.730469 11.058594 5.773438 10.960938 5.800781 10.824219 C 5.808594 10.777344 5.828125 10.722656 5.839844 10.703125 C 5.851562 10.679688 5.859375 10.636719 5.859375 10.605469 C 5.859375 10.574219 5.875 10.53125 5.890625 10.511719 C 5.90625 10.488281 5.921875 10.4375 5.921875 10.390625 C 5.921875 10.34375 5.933594 10.289062 5.949219 10.269531 C 5.964844 10.246094 5.980469 10.195312 5.980469 10.15625 C 5.980469 10.113281 5.992188 10.050781 6.007812 10.015625 C 6.046875 9.917969 6.085938 9.800781 6.101562 9.710938 C 6.109375 9.664062 6.128906 9.589844 6.140625 9.539062 C 6.152344 9.488281 6.171875 9.417969 6.183594 9.378906 C 6.191406 9.34375 6.210938 9.261719 6.226562 9.199219 C 6.285156 8.980469 6.320312 8.847656 6.371094 8.628906 C 6.421875 8.421875 6.460938 8.257812 6.5 8.128906 C 6.507812 8.097656 6.523438 8.03125 6.53125 7.984375 C 6.539062 7.9375 6.550781 7.894531 6.5625 7.886719 C 6.570312 7.882812 6.578125 7.84375 6.578125 7.804688 C 6.578125 7.765625 6.59375 7.703125 6.609375 7.671875 C 6.625 7.640625 6.640625 7.59375 6.640625 7.570312 C 6.640625 7.542969 6.648438 7.496094 6.660156 7.464844 C 6.675781 7.4375 6.691406 7.378906 6.699219 7.339844 C 6.734375 7.191406 6.777344 7.109375 6.820312 7.105469 C 6.863281 7.097656 7.164062 7.15625 7.339844 7.210938 C 7.390625 7.226562 7.496094 7.253906 7.578125 7.269531 C 7.660156 7.289062 7.75 7.3125 7.777344 7.320312 C 7.800781 7.332031 7.835938 7.339844 7.851562 7.339844 C 7.871094 7.339844 7.914062 7.355469 7.953125 7.375 C 8.023438 7.40625 8.023438 7.410156 8.015625 7.496094 C 8.007812 7.546875 7.988281 7.644531 7.972656 7.710938 C 7.921875 7.925781 7.859375 8.167969 7.832031 8.289062 C 7.816406 8.355469 7.792969 8.4375 7.78125 8.464844 C 7.769531 8.496094 7.761719 8.546875 7.761719 8.578125 C 7.761719 8.613281 7.753906 8.640625 7.742188 8.648438 C 7.730469 8.65625 7.714844 8.703125 7.710938 8.757812 C 7.703125 8.808594 7.691406 8.867188 7.679688 8.882812 C 7.667969 8.902344 7.660156 8.941406 7.660156 8.96875 C 7.660156 8.996094 7.648438 9.046875 7.632812 9.085938 C 7.601562 9.15625 7.566406 9.289062 7.542969 9.410156 C 7.535156 9.453125 7.515625 9.511719 7.503906 9.535156 C 7.488281 9.558594 7.480469 9.613281 7.480469 9.652344 C 7.480469 9.695312 7.464844 9.746094 7.449219 9.769531 C 7.433594 9.789062 7.421875 9.839844 7.421875 9.875 C 7.421875 9.910156 7.40625 9.964844 7.390625 9.996094 C 7.378906 10.027344 7.359375 10.085938 7.355469 10.128906 C 7.347656 10.175781 7.3125 10.308594 7.28125 10.429688 C 7.246094 10.550781 7.210938 10.6875 7.203125 10.730469 C 7.183594 10.828125 7.144531 10.96875 7.09375 11.148438 C 7.070312 11.226562 7.046875 11.324219 7.039062 11.371094 C 7.03125 11.414062 7.011719 11.488281 7 11.539062 C 6.984375 11.589844 6.96875 11.660156 6.957031 11.699219 C 6.941406 11.769531 6.902344 11.914062 6.851562 12.109375 C 6.796875 12.304688 6.777344 12.390625 6.761719 12.46875 C 6.753906 12.515625 6.738281 12.582031 6.726562 12.621094 C 6.691406 12.734375 6.640625 12.90625 6.632812 12.960938 C 6.625 12.988281 6.609375 13.0625 6.589844 13.128906 C 6.558594 13.242188 6.523438 13.390625 6.480469 13.558594 C 6.355469 14.078125 6.308594 14.230469 6.265625 14.246094 C 6.222656 14.265625 6.097656 14.246094 5.800781 14.179688 C 5.464844 14.105469 5.125 14.027344 4.9375 13.988281 C 4.855469 13.972656 4.769531 13.949219 4.753906 13.933594 C 4.707031 13.902344 4.6875 13.753906 4.660156 13.328125 C 4.652344 13.152344 4.632812 12.976562 4.621094 12.941406 C 4.609375 12.902344 4.601562 12.773438 4.601562 12.648438 C 4.597656 12.53125 4.585938 12.371094 4.570312 12.300781 C 4.554688 12.226562 4.539062 12.070312 4.539062 11.949219 C 4.539062 11.828125 4.53125 11.691406 4.519531 11.640625 C 4.507812 11.589844 4.492188 11.386719 4.480469 11.191406 C 4.472656 10.992188 4.453125 10.804688 4.441406 10.773438 C 4.429688 10.742188 4.421875 10.613281 4.421875 10.484375 C 4.421875 10.34375 4.40625 10.207031 4.390625 10.140625 C 4.371094 10.074219 4.359375 9.9375 4.359375 9.796875 C 4.359375 9.558594 4.335938 9.441406 4.289062 9.441406 C 4.273438 9.441406 4.257812 9.464844 4.246094 9.492188 C 4.242188 9.527344 4.222656 9.589844 4.207031 9.640625 C 4.191406 9.691406 4.164062 9.773438 4.148438 9.828125 C 4.125 9.929688 4.027344 10.257812 3.929688 10.578125 C 3.898438 10.675781 3.863281 10.78125 3.847656 10.816406 C 3.832031 10.851562 3.820312 10.902344 3.820312 10.925781 C 3.816406 10.949219 3.804688 10.992188 3.789062 11.019531 C 3.773438 11.046875 3.761719 11.097656 3.761719 11.125 C 3.761719 11.15625 3.746094 11.207031 3.730469 11.234375 C 3.695312 11.308594 3.660156 11.414062 3.640625 11.5 C 3.632812 11.539062 3.617188 11.589844 3.605469 11.613281 C 3.589844 11.636719 3.578125 11.675781 3.578125 11.699219 C 3.578125 11.722656 3.542969 11.851562 3.503906 11.984375 C 3.457031 12.121094 3.398438 12.304688 3.375 12.398438 C 3.273438 12.746094 3.195312 12.992188 3.183594 13.03125 C 3.164062 13.070312 3.132812 13.1875 3.101562 13.320312 C 3.054688 13.519531 2.996094 13.574219 2.875 13.539062 C 2.839844 13.527344 2.785156 13.519531 2.753906 13.519531 C 2.71875 13.519531 2.644531 13.507812 2.585938 13.488281 C 2.527344 13.472656 2.433594 13.445312 2.375 13.429688 C 2.3125 13.414062 2.25 13.398438 2.226562 13.398438 C 2.207031 13.398438 2.074219 13.375 1.929688 13.34375 C 1.789062 13.308594 1.617188 13.273438 1.554688 13.261719 C 1.390625 13.226562 1.359375 13.183594 1.359375 12.960938 C 1.359375 12.867188 1.351562 12.75 1.339844 12.703125 C 1.328125 12.65625 1.308594 12.386719 1.300781 12.105469 C 1.257812 10.925781 1.238281 10.566406 1.226562 10.511719 C 1.222656 10.476562 1.210938 10.253906 1.203125 10.011719 C 1.191406 9.769531 1.175781 9.410156 1.160156 9.21875 C 1.148438 9.027344 1.128906 8.65625 1.121094 8.398438 C 1.078125 7.503906 1.003906 6.027344 0.984375 5.847656 C 0.976562 5.738281 0.980469 5.71875 1.019531 5.683594 C 1.042969 5.65625 1.078125 5.640625 1.097656 5.648438 C 1.113281 5.652344 1.1875 5.671875 1.261719 5.691406 Z M 1.261719 5.691406 "/>
<path style=" stroke:none;fill-rule:nonzero;fill:rgb(100%,100%,100%);fill-opacity:1;" d="M 17.039062 3.78125 C 16.988281 3.792969 16.898438 3.8125 16.835938 3.828125 C 16.773438 3.847656 16.667969 3.875 16.605469 3.890625 C 16.542969 3.90625 16.304688 3.964844 16.078125 4.019531 C 15.855469 4.074219 15.464844 4.167969 15.210938 4.230469 C 14.761719 4.339844 14.613281 4.375 14.410156 4.429688 C 14.316406 4.453125 14.222656 4.476562 14.039062 4.523438 C 14.003906 4.53125 13.914062 4.550781 13.851562 4.566406 C 13.785156 4.585938 13.554688 4.640625 13.339844 4.695312 C 13.125 4.75 12.699219 4.855469 12.390625 4.929688 C 12.082031 5.003906 11.785156 5.074219 11.730469 5.089844 C 11.59375 5.125 11.390625 5.179688 11.261719 5.210938 C 11.199219 5.222656 11.09375 5.253906 11.027344 5.269531 C 10.957031 5.285156 10.84375 5.3125 10.777344 5.332031 C 10.707031 5.347656 10.601562 5.375 10.539062 5.390625 C 10.480469 5.402344 10.375 5.433594 10.308594 5.449219 C 10.050781 5.515625 9.359375 5.679688 9.335938 5.679688 C 9.316406 5.679688 9.292969 5.695312 9.273438 5.714844 C 9.242188 5.75 9.238281 6.132812 9.238281 10.832031 C 9.238281 15.316406 9.242188 15.925781 9.273438 16.039062 C 9.355469 16.394531 9.632812 16.617188 10.003906 16.621094 C 10.117188 16.621094 10.199219 16.605469 10.410156 16.550781 C 10.464844 16.535156 10.566406 16.507812 10.640625 16.488281 C 10.710938 16.472656 10.816406 16.445312 10.871094 16.429688 C 11.027344 16.386719 12.582031 15.996094 12.660156 15.980469 C 12.699219 15.972656 12.769531 15.953125 12.820312 15.941406 C 12.871094 15.929688 12.964844 15.902344 13.03125 15.886719 C 13.097656 15.867188 13.195312 15.84375 13.25 15.828125 C 13.304688 15.8125 13.40625 15.789062 13.480469 15.769531 C 13.550781 15.753906 13.648438 15.722656 13.699219 15.707031 C 13.75 15.691406 13.808594 15.679688 13.835938 15.679688 C 13.863281 15.679688 13.898438 15.671875 13.921875 15.660156 C 13.941406 15.648438 13.996094 15.632812 14.042969 15.621094 C 14.09375 15.613281 14.578125 15.488281 15.128906 15.351562 C 15.679688 15.210938 16.160156 15.089844 16.199219 15.082031 C 16.238281 15.074219 16.300781 15.054688 16.339844 15.046875 C 16.410156 15.023438 16.539062 14.988281 16.660156 14.960938 C 17.140625 14.847656 17.359375 14.742188 17.582031 14.507812 C 17.746094 14.332031 17.898438 14.070312 17.929688 13.914062 C 17.9375 13.867188 17.953125 13.839844 17.96875 13.839844 C 17.996094 13.839844 18 13.230469 18 9.089844 C 18 5.941406 17.992188 4.34375 17.980469 4.351562 C 17.96875 4.355469 17.949219 4.335938 17.9375 4.304688 C 17.8125 3.992188 17.65625 3.847656 17.371094 3.789062 C 17.230469 3.757812 17.167969 3.757812 17.039062 3.78125 Z M 15.761719 6.222656 C 16.035156 6.308594 16.15625 6.363281 16.308594 6.46875 C 16.515625 6.613281 16.734375 6.957031 16.796875 7.242188 C 16.898438 7.691406 16.871094 8.199219 16.726562 8.621094 C 16.695312 8.714844 16.6875 8.730469 16.617188 8.890625 C 16.515625 9.125 16.191406 9.488281 15.921875 9.660156 C 15.847656 9.710938 15.78125 9.761719 15.78125 9.773438 C 15.78125 9.796875 15.804688 9.804688 15.988281 9.828125 C 16.171875 9.855469 16.210938 9.863281 16.25 9.878906 C 16.273438 9.890625 16.339844 9.917969 16.398438 9.941406 C 16.628906 10.035156 16.820312 10.21875 16.945312 10.46875 C 16.984375 10.546875 17.023438 10.648438 17.03125 10.699219 C 17.039062 10.75 17.050781 10.800781 17.0625 10.8125 C 17.070312 10.824219 17.078125 11.039062 17.078125 11.292969 C 17.078125 11.769531 17.066406 11.871094 16.972656 12.140625 C 16.953125 12.191406 16.921875 12.285156 16.898438 12.351562 C 16.847656 12.492188 16.714844 12.742188 16.625 12.851562 C 16.617188 12.859375 16.574219 12.914062 16.535156 12.972656 C 16.457031 13.078125 16.152344 13.378906 16.0625 13.4375 C 16.035156 13.453125 15.996094 13.480469 15.980469 13.496094 C 15.957031 13.519531 15.859375 13.585938 15.75 13.652344 C 15.726562 13.667969 15.65625 13.707031 15.59375 13.738281 C 15.527344 13.773438 15.464844 13.804688 15.453125 13.816406 C 15.441406 13.824219 15.386719 13.847656 15.328125 13.867188 C 15.277344 13.886719 15.144531 13.9375 15.039062 13.976562 C 14.792969 14.074219 14.65625 14.121094 14.597656 14.121094 C 14.570312 14.121094 14.527344 14.132812 14.5 14.148438 C 14.472656 14.164062 14.417969 14.179688 14.378906 14.179688 C 14.339844 14.179688 14.289062 14.195312 14.269531 14.210938 C 14.246094 14.226562 14.199219 14.238281 14.160156 14.238281 C 14.121094 14.238281 14.066406 14.253906 14.039062 14.269531 C 14.011719 14.285156 13.960938 14.296875 13.929688 14.300781 C 13.890625 14.300781 13.839844 14.3125 13.808594 14.328125 C 13.777344 14.347656 13.722656 14.359375 13.695312 14.359375 C 13.660156 14.359375 13.617188 14.371094 13.59375 14.382812 C 13.570312 14.394531 13.515625 14.414062 13.46875 14.421875 C 13.425781 14.429688 13.332031 14.453125 13.261719 14.46875 C 13.1875 14.488281 13.097656 14.511719 13.058594 14.519531 C 13.023438 14.527344 12.953125 14.542969 12.910156 14.554688 C 12.867188 14.566406 12.730469 14.601562 12.609375 14.628906 C 12.351562 14.691406 12.1875 14.730469 12.050781 14.773438 C 12 14.789062 11.933594 14.800781 11.90625 14.800781 C 11.882812 14.800781 11.855469 14.808594 11.851562 14.820312 C 11.84375 14.828125 11.8125 14.839844 11.785156 14.839844 C 11.753906 14.839844 11.691406 14.851562 11.640625 14.867188 C 11.496094 14.910156 11.375 14.9375 11.347656 14.925781 C 11.332031 14.921875 11.316406 14.886719 11.3125 14.855469 C 11.292969 14.730469 11.257812 9.9375 11.265625 8.414062 L 11.269531 6.878906 L 11.378906 6.839844 C 11.441406 6.816406 11.53125 6.800781 11.578125 6.800781 C 11.628906 6.800781 11.691406 6.785156 11.71875 6.769531 C 11.746094 6.753906 11.8125 6.742188 11.867188 6.738281 C 11.917969 6.738281 11.992188 6.726562 12.035156 6.710938 C 12.070312 6.695312 12.144531 6.679688 12.191406 6.679688 C 12.234375 6.679688 12.308594 6.664062 12.347656 6.648438 C 12.386719 6.632812 12.453125 6.621094 12.496094 6.621094 C 12.542969 6.621094 12.601562 6.609375 12.632812 6.601562 C 12.660156 6.589844 12.734375 6.574219 12.796875 6.566406 C 12.859375 6.558594 12.925781 6.546875 12.945312 6.539062 C 12.960938 6.527344 13.007812 6.519531 13.039062 6.519531 C 13.074219 6.519531 13.15625 6.507812 13.226562 6.492188 C 13.414062 6.449219 13.679688 6.398438 13.949219 6.363281 C 14.015625 6.351562 14.097656 6.335938 14.125 6.320312 C 14.15625 6.308594 14.21875 6.300781 14.261719 6.300781 C 14.304688 6.300781 14.359375 6.289062 14.382812 6.28125 C 14.402344 6.269531 14.5 6.25 14.597656 6.238281 C 14.691406 6.226562 14.828125 6.210938 14.898438 6.203125 C 15.066406 6.179688 15.671875 6.195312 15.761719 6.222656 Z M 15.761719 6.222656 "/>
<path style=" stroke:none;fill-rule:nonzero;fill:rgb(100%,100%,100%);fill-opacity:1;" d="M 14.039062 7.824219 C 14.011719 7.835938 13.933594 7.851562 13.859375 7.863281 C 13.789062 7.875 13.679688 7.890625 13.621094 7.898438 C 13.503906 7.917969 13.386719 7.953125 13.34375 7.984375 C 13.324219 8 13.320312 8.195312 13.324219 8.886719 C 13.328125 9.882812 13.320312 9.832031 13.484375 9.78125 C 13.53125 9.769531 13.617188 9.75 13.671875 9.742188 C 13.726562 9.734375 13.78125 9.722656 13.796875 9.710938 C 13.808594 9.703125 13.871094 9.691406 13.925781 9.679688 C 14.035156 9.664062 14.074219 9.648438 14.324219 9.550781 C 14.546875 9.464844 14.726562 9.289062 14.84375 9.042969 L 14.925781 8.871094 L 14.925781 8.515625 C 14.925781 8.210938 14.921875 8.152344 14.890625 8.125 C 14.875 8.105469 14.859375 8.078125 14.859375 8.070312 C 14.859375 8.03125 14.714844 7.886719 14.636719 7.84375 C 14.558594 7.804688 14.515625 7.800781 14.316406 7.800781 C 14.191406 7.800781 14.066406 7.8125 14.039062 7.824219 Z M 14.039062 7.824219 "/>
<path style=" stroke:none;fill-rule:nonzero;fill:rgb(100%,100%,100%);fill-opacity:1;" d="M 14.109375 10.882812 C 14.066406 10.890625 13.960938 10.914062 13.878906 10.933594 C 13.796875 10.949219 13.6875 10.972656 13.636719 10.988281 C 13.585938 11.007812 13.519531 11.019531 13.484375 11.019531 C 13.453125 11.019531 13.402344 11.039062 13.371094 11.0625 L 13.320312 11.105469 L 13.328125 12.949219 L 13.398438 12.957031 C 13.433594 12.960938 13.472656 12.953125 13.484375 12.941406 C 13.496094 12.929688 13.539062 12.921875 13.578125 12.921875 C 13.617188 12.921875 13.675781 12.90625 13.707031 12.890625 C 13.738281 12.875 13.789062 12.859375 13.820312 12.859375 C 13.855469 12.859375 13.914062 12.847656 13.953125 12.828125 C 13.992188 12.8125 14.046875 12.800781 14.078125 12.800781 C 14.105469 12.796875 14.152344 12.785156 14.179688 12.769531 C 14.207031 12.753906 14.257812 12.738281 14.289062 12.738281 C 14.324219 12.738281 14.367188 12.726562 14.386719 12.710938 C 14.410156 12.695312 14.4375 12.679688 14.453125 12.679688 C 14.5 12.679688 14.722656 12.515625 14.8125 12.410156 C 14.929688 12.285156 15.039062 12.074219 15.039062 11.988281 C 15.042969 11.957031 15.054688 11.90625 15.070312 11.878906 C 15.109375 11.808594 15.113281 11.382812 15.070312 11.328125 C 15.054688 11.308594 15.039062 11.265625 15.039062 11.234375 C 15.039062 11.144531 14.90625 10.984375 14.78125 10.925781 C 14.679688 10.875 14.644531 10.871094 14.429688 10.867188 C 14.296875 10.863281 14.152344 10.871094 14.109375 10.882812 Z M 14.109375 10.882812 "/>
</g>
</svg>
